<svg width="14" height="14" viewBox="0 0 14 14" fill="none" xmlns="http://www.w3.org/2000/svg">
<path d="M10.0418 0.263184H3.95532C1.91867 0.263184 0.261719 1.92013 0.261719 3.95682V10.0433C0.261719 12.0799 1.91867 13.7369 3.95532 13.7369H10.0418C12.0785 13.7369 13.7354 12.0799 13.7354 10.0433V3.95682C13.7354 1.92013 12.0785 0.263184 10.0418 0.263184ZM6.99856 10.6956C4.9608 10.6956 3.30301 9.03779 3.30301 7.00003C3.30301 4.96226 4.96082 3.3045 6.99856 3.3045C9.0363 3.3045 10.6941 4.96229 10.6941 7.00003C10.6941 9.03776 9.0363 10.6956 6.99856 10.6956ZM10.9152 4.20624C10.2961 4.20624 9.79238 3.70255 9.79238 3.08345C9.79238 2.46434 10.2961 1.96063 10.9152 1.96063C11.5343 1.96063 12.038 2.46432 12.038 3.08342C12.038 3.70253 11.5343 4.20624 10.9152 4.20624Z" fill="white"/>
</svg>
