<svg width="16" height="10" viewBox="0 0 16 10" fill="none" xmlns="http://www.w3.org/2000/svg">
<path d="M15.4447 8.39015C15.4039 8.32194 15.1519 7.77432 13.9392 6.64876C12.6696 5.47015 12.8402 5.66153 14.3693 3.62359C15.3007 2.38244 15.673 1.62449 15.5565 1.30047C15.4456 0.991603 14.7606 1.07308 14.7606 1.07308L12.483 1.08635C12.483 1.08635 12.3143 1.06361 12.1883 1.13846C12.0661 1.21236 11.9875 1.38289 11.9875 1.38289C11.9875 1.38289 11.6265 2.3436 11.1452 3.16029C10.1305 4.88368 9.72405 4.97464 9.55825 4.86757C9.17264 4.6184 9.26928 3.86518 9.26928 3.33083C9.26928 1.66049 9.52224 0.964127 8.77566 0.784114C8.52743 0.724425 8.34552 0.684633 7.71169 0.678001C6.89878 0.669474 6.20999 0.680843 5.8206 0.871278C5.561 0.998235 5.36109 1.28152 5.48331 1.29763C5.63395 1.31752 5.97503 1.38953 6.15599 1.63586C6.39001 1.95325 6.38148 2.66762 6.38148 2.66762C6.38148 2.66762 6.51602 4.63356 6.06788 4.878C5.75996 5.04569 5.33835 4.70367 4.43354 3.13945C3.97025 2.33886 3.61969 1.45301 3.61969 1.45301C3.61969 1.45301 3.55243 1.28815 3.4321 1.20004C3.2862 1.09298 3.08155 1.05887 3.08155 1.05887L0.915703 1.07214C0.915703 1.07214 0.590731 1.08161 0.471353 1.22278C0.36524 1.34879 0.462826 1.60839 0.462826 1.60839C0.462826 1.60839 2.15874 5.57531 4.07826 7.57535C5.83955 9.40865 7.83864 9.28832 7.83864 9.28832H8.74439C8.74439 9.28832 9.0182 9.25801 9.15748 9.10736C9.28633 8.96904 9.28159 8.70944 9.28159 8.70944C9.28159 8.70944 9.26359 7.49387 9.82827 7.31481C10.3844 7.13859 11.0988 8.48963 11.8558 9.00978C12.428 9.40296 12.8629 9.31675 12.8629 9.31675L14.8876 9.28832C14.8876 9.28832 15.9468 9.22295 15.4447 8.39015Z" fill="white"/>
</svg>
