<svg width="66" height="53" viewBox="0 0 66 53" fill="none" xmlns="http://www.w3.org/2000/svg">
<path d="M1.17188 47.0986L1.61827 46.0451V42.0461L1.17188 41.0029V40.9415H3.85022C4.64155 40.9415 5.32127 41.054 5.89955 41.279C6.47783 41.504 6.92422 41.8415 7.23872 42.3018C7.55322 42.762 7.71555 43.345 7.71555 44.0507C7.71555 44.7564 7.56337 45.3292 7.24887 45.7997C6.93437 46.2599 6.48797 46.6076 5.91984 46.8327C5.35171 47.0577 4.66183 47.1702 3.86036 47.1702H1.18202V47.0986H1.17188ZM4.0024 46.8736C4.41835 46.8736 4.75314 46.7713 4.97634 46.577C5.19953 46.3826 5.372 46.086 5.4633 45.6871C5.55461 45.2883 5.60534 44.7564 5.60534 44.0916C5.60534 43.3961 5.55461 42.8438 5.45316 42.4347C5.35171 42.0154 5.18938 41.7086 4.95604 41.5142C4.7227 41.3199 4.39806 41.2176 3.9821 41.2176H3.60673V46.8838H4.0024V46.8736Z" fill="#1A1A1A"/>
<path d="M10.135 46.8531C9.63789 46.577 9.25237 46.1985 8.97845 45.7178C8.70453 45.2269 8.5625 44.6746 8.5625 44.061C8.5625 43.4371 8.70453 42.8848 8.97845 42.4041C9.25237 41.9131 9.63789 41.5347 10.135 41.2586C10.6321 40.9824 11.2003 40.8494 11.8394 40.8494C12.4786 40.8494 13.0467 40.9824 13.5539 41.2586C14.0511 41.5347 14.4467 41.9131 14.7308 42.3938C15.0149 42.8848 15.1467 43.4268 15.1467 44.0405C15.1467 44.6644 15.0047 45.2269 14.7308 45.7076C14.4569 46.1985 14.0612 46.577 13.5641 46.8531C13.067 47.1293 12.4887 47.2622 11.8394 47.2622C11.2003 47.2622 10.6321 47.1293 10.135 46.8531ZM12.7626 46.2497C12.9554 45.7587 13.0467 45.0326 13.0467 44.061C13.0467 43.0791 12.9554 42.3529 12.7626 41.862C12.58 41.3711 12.2655 41.1256 11.8394 41.1256C11.4235 41.1256 11.1292 41.3711 10.9466 41.862C10.764 42.3529 10.6727 43.0893 10.6727 44.061C10.6727 45.0326 10.764 45.7587 10.9466 46.2497C11.1292 46.7406 11.4336 46.9861 11.8394 46.9861C12.2655 46.9861 12.5699 46.7406 12.7626 46.2497Z" fill="#1A1A1A"/>
<path d="M15.9203 47.0986L16.3667 46.0451V42.0461L15.9203 40.9926V40.9313H18.8929V40.9926L18.3552 42.0461V46.8736H19.4306L21.0031 45.3292H21.0436L20.8407 47.1599H15.9102V47.0986H15.9203Z" fill="#1A1A1A"/>
<path d="M23.4396 46.8633C22.9222 46.5974 22.5062 46.2292 22.212 45.7587C21.9178 45.2883 21.7656 44.7462 21.7656 44.1428C21.7656 43.5189 21.9077 42.9461 22.1917 42.445C22.4758 41.9438 22.8816 41.5552 23.399 41.2688C23.9164 40.9824 24.5251 40.8392 25.2049 40.8392C25.8846 40.8392 26.5948 40.921 27.3556 41.0949L27.4977 43.0279H27.3962C27.3049 42.7211 27.1527 42.4143 26.96 42.1177C26.7571 41.8211 26.5237 41.5858 26.2498 41.4017C25.9759 41.2176 25.6817 41.1256 25.3672 41.1256C24.8701 41.1256 24.5048 41.3915 24.2512 41.9131C24.0077 42.4347 23.886 43.1711 23.886 44.1121C23.886 44.7155 23.9469 45.2371 24.0686 45.6667C24.1903 46.0963 24.3527 46.4235 24.5759 46.6486C24.799 46.8736 25.0628 46.9861 25.3672 46.9861C25.6715 46.9861 25.9657 46.894 26.2397 46.7099C26.5136 46.5258 26.7571 46.2804 26.9498 45.994C27.1527 45.6974 27.2948 45.4008 27.3962 45.0837H27.4977L27.3556 47.0167C26.96 47.1088 26.5948 47.1702 26.2803 47.2111C25.9657 47.252 25.6005 47.2724 25.2049 47.2724C24.5454 47.2622 23.957 47.1293 23.4396 46.8633Z" fill="#1A1A1A"/>
<path d="M28.5117 47.0986L28.9581 46.0451V42.0461L28.5117 41.0029V40.9415H33.5742V42.7723H33.5235L32.164 41.2176H30.9466V43.8155H31.6263L32.6002 43.0995H32.6814V44.9405H32.6002L31.6263 44.0916H30.9466V46.8736H32.3669L33.9394 45.3292H33.98L33.7771 47.1599H28.5117V47.0986Z" fill="#1A1A1A"/>
<path d="M37.6845 42.0256L37.0352 41.0028V40.9313H40.5251V41.0028L39.8352 42.0461L41.0222 45.411L42.331 42.0358L41.6309 40.9926V40.921H43.3861V40.9926L42.6353 42.0358L40.6266 47.1497H39.6729L37.6845 42.0256Z" fill="#1A1A1A"/>
<path d="M44.0742 47.0986L44.5206 46.0553V42.0563L44.0742 41.0131V40.9517H46.9555V41.0131L46.5091 42.0563V46.0553L46.9555 47.0986V47.1599H44.0742V47.0986Z" fill="#1A1A1A"/>
<path d="M47.8695 47.0986L48.3159 46.0451V42.0461L47.8695 40.9926V40.9313H50.8421V40.9926L50.3044 42.0461V46.8736H51.3798L52.9523 45.3292H52.9929L52.79 47.1599H47.8594V47.0986H47.8695Z" fill="#1A1A1A"/>
<path d="M53.7445 47.0986L54.1909 46.0451V42.0461L53.7445 40.9926V40.9313H56.7171V40.9926L56.1794 42.0461V46.8736H57.2548L58.8273 45.3292H58.8679L58.665 47.1599H53.7344V47.0986H53.7445Z" fill="#1A1A1A"/>
<path d="M59.5078 47.0986L60.2484 46.0656L61.7702 42.0768L61.1716 41.0029V40.9415H63.4036L65.3718 46.0451L66.0008 47.0986V47.1599H62.6122V47.0986L63.2514 46.0553L62.9876 45.3087H60.847L60.5731 46.0451L61.3644 47.0883V47.1497H59.5281V47.0986H59.5078ZM62.8862 45.0223L61.9427 42.3836L60.9383 45.0223H62.8862Z" fill="#1A1A1A"/>
<path d="M32.8154 33.0048C39.6533 33.0048 45.2129 27.4 45.2129 20.5066C45.2129 13.6131 39.6533 8.0083 32.8154 8.0083C25.9776 8.0083 20.418 13.6131 20.418 20.5066C20.418 27.4 25.9776 33.0048 32.8154 33.0048ZM32.8154 10.0027C38.5576 10.0027 43.2346 14.7177 43.2346 20.5066C43.2346 26.2954 38.5576 31.0104 32.8154 31.0104C27.0732 31.0104 22.3963 26.2954 22.3963 20.5066C22.3861 14.7177 27.0631 10.0027 32.8154 10.0027Z" fill="url(#paint0_linear_603_1985)"/>
<path d="M8.96011 21.1304C10.0457 22.0305 10.4413 23.5237 10.5529 24.9351C10.6645 26.3466 10.5428 27.7887 10.8776 29.1694C11.6892 32.5139 15.4835 34.7946 18.7908 33.9253C19.8662 33.6389 20.8402 33.0866 21.9156 32.79C22.9808 32.4934 24.2287 32.4934 25.0707 33.2196L26.136 34.5287C26.42 33.2196 25.2533 31.9718 23.9751 31.6036C22.6968 31.2456 21.3373 31.4911 20.0083 31.5831C18.1213 31.7161 16.0618 31.4502 14.682 30.1513C13.1805 28.7398 12.866 26.3875 13.353 24.3828C13.84 22.3782 15.0168 20.619 16.1734 18.9008C14.682 19.3815 13.4037 20.4861 12.6936 21.8975C12.9066 20.1895 11.4051 18.5735 9.71086 18.369C9.98479 18.7372 10.1978 19.1258 10.3094 19.5656C9.88333 19.0031 9.27462 18.6042 8.59489 18.4303C7.07311 18.7576 5.79481 20.0565 5.32812 21.5702C5.95713 20.3122 7.87458 20.2304 8.96011 21.1304ZM11.2732 21.9384C11.324 21.427 11.3037 20.9157 11.2225 20.4145C12.7443 23.3294 11.7703 27.0011 13.0791 30.0183C14.2965 32.8002 17.4923 32.7286 17.4923 32.7286C16.214 32.8923 14.8646 32.5343 13.8298 31.757C12.0037 30.3763 11.8008 28.3001 11.6892 26.1625C11.5573 23.7487 10.7254 21.0384 8.23981 20.1179C9.49781 20.0361 10.7457 20.7929 11.2732 21.9384Z" fill="url(#paint1_linear_603_1985)"/>
<path d="M1.3026 38.2312C1.38376 37.372 1.5055 37.1061 1.63739 36.7481C2.01277 35.6742 2.73308 35.1935 3.86934 34.8458C4.95488 34.5185 6.00999 34.8765 6.99408 35.3367C9.05356 36.2981 11.1536 37.4641 13.416 37.9448C16.0639 38.5073 17.9306 37.5766 20.1423 36.1856C21.2988 35.4492 22.6989 34.4469 24.1497 34.8867C23.3888 34.3651 22.3641 34.4571 21.5119 34.8049C20.6597 35.1526 19.9191 35.7151 19.1075 36.1345C16.8857 37.28 14.0957 37.2493 11.9044 36.0527C10.6261 35.3572 9.55067 34.3037 8.23179 33.6696C6.87233 33.015 5.24909 32.8514 3.83891 33.3832C2.42872 33.9253 1.27217 35.2038 1.03883 36.697C0.947521 37.2288 0.988099 37.8016 1.3026 38.2312ZM8.73905 34.5185C9.42893 34.9174 9.82459 35.7356 10.555 36.0629C9.25646 35.7765 8.15063 34.8253 6.92306 34.3242C6.64914 34.2117 6.34478 34.0889 6.05057 33.9969C5.95926 33.9764 5.86795 33.9458 5.78679 33.9355C5.62447 33.9048 4.88387 33.7412 4.79256 33.8026C5.19837 33.5162 7.34916 33.7105 8.73905 34.5185Z" fill="url(#paint2_linear_603_1985)"/>
<path d="M64.5835 36.7072C64.3501 35.2038 63.1936 33.9253 61.7834 33.3934C60.3732 32.8616 58.75 33.0253 57.3905 33.6798C56.0818 34.3139 55.0064 35.3674 53.718 36.0629C51.5266 37.2595 48.7366 37.2902 46.5148 36.1447C45.7032 35.7254 44.9626 35.1628 44.1104 34.8151C43.2582 34.4674 42.2335 34.3753 41.4727 34.8969C42.9234 34.4674 44.3235 35.4697 45.48 36.1958C47.6917 37.597 49.5584 38.5175 52.2063 37.955C54.4788 37.4743 56.5688 36.2981 58.6282 35.3469C59.6123 34.8867 60.6674 34.5287 61.753 34.856C62.8892 35.2038 63.6095 35.6742 63.9849 36.7584C64.1067 37.1163 64.2284 37.3823 64.3197 38.2414C64.6342 37.8016 64.6748 37.2288 64.5835 36.7072ZM60.85 33.8026C60.7486 33.7412 60.008 33.9048 59.8558 33.9355C59.7645 33.956 59.6732 33.9764 59.592 33.9969C59.2877 34.0889 58.9935 34.2117 58.7195 34.3242C57.492 34.8151 56.3861 35.7765 55.0876 36.0629C55.818 35.7356 56.2035 34.9276 56.9036 34.5185C58.2732 33.7105 60.4239 33.5162 60.85 33.8026Z" fill="url(#paint3_linear_603_1985)"/>
<path d="M4.05222 29.4251C2.9261 29.7831 2.00288 30.7547 1.69852 31.9002C2.78406 31.0002 4.22468 30.6933 5.62473 30.5604C6.13199 30.5092 6.63924 30.4786 7.11607 30.2945C8.43495 29.7626 8.37408 28.0239 7.71464 26.9602C7.45086 26.5409 7.0552 26.2341 6.68997 25.9068C5.97981 25.2829 5.3508 24.5669 4.82325 23.7794C4.97543 24.9454 5.2595 26.0806 5.68559 27.1648C4.70151 27.4307 3.62611 26.9295 2.99711 26.1318C2.35796 25.334 2.10433 24.2908 2.00288 23.2783C1.57678 24.4851 1.23184 25.7738 1.47533 27.0318C1.72896 28.2796 2.78406 29.4558 4.05222 29.4251ZM3.8696 27.983C4.37686 28.3614 5.01601 28.5864 5.64501 28.5046C5.82763 28.4842 6.02038 28.433 6.15227 28.3103C6.33489 28.1466 6.41605 27.9012 6.41605 27.6659C6.41605 27.4205 6.35518 27.1852 6.29431 26.9602C6.84215 27.5534 7.31897 28.7705 6.35518 29.1387C5.65516 29.4047 4.84354 29.1694 4.24497 28.7194C3.6464 28.2796 3.21016 27.6353 2.8145 27.0011C2.72319 26.858 2.63188 26.7148 2.63188 26.5511C2.96668 27.083 3.36234 27.6046 3.8696 27.983Z" fill="url(#paint4_linear_603_1985)"/>
<path d="M14.7841 15.8325C15.8493 15.0552 17.1479 14.6768 18.4262 14.4108C20.1915 14.0426 21.6423 13.3983 22.4133 11.6391C23.1032 10.0743 23.4278 8.14126 22.8901 6.4946C23.1438 7.56851 22.5858 8.79583 21.7336 9.54245C20.7393 10.422 19.4205 10.8311 18.1827 11.3221C16.945 11.813 15.6769 12.4573 15.0073 13.6131C15.4841 12.2733 16.1233 10.9846 16.9146 9.80837C16.3059 10.3402 15.7174 10.8823 15.0986 11.4039C14.1246 12.2221 13.6478 13.3574 13.3333 14.5745C13.2217 14.0529 13.242 13.5108 13.3029 12.979C12.8261 13.4188 12.3797 13.8995 12.1159 14.4927C11.213 16.4666 12.7348 17.203 12.9377 19.0542C13.3029 17.4689 13.7493 16.5791 14.7841 15.8325ZM16.9044 12.6926C17.4929 12.4164 20.2118 11.5573 21.5408 10.5141C21.0843 11.5266 20.0799 12.621 18.9233 12.713C19.248 12.8051 19.5929 12.8051 19.9176 12.7233C19.177 13.1937 18.2842 13.3472 17.432 13.5006C16.9552 13.5926 16.4682 13.6949 16.0117 13.8688C15.687 14.0017 15.2711 14.2165 15.0073 14.6358C15.0682 14.4927 15.6769 13.2653 16.9044 12.6926Z" fill="url(#paint5_linear_603_1985)"/>
<path d="M52.9878 21.8873C52.2777 20.4759 50.9993 19.3713 49.508 18.8906C50.6544 20.6088 51.8313 22.368 52.3284 24.3726C52.8153 26.3773 52.5008 28.7194 50.9993 30.141C49.6196 31.4502 47.5601 31.7059 45.6731 31.5729C44.3441 31.4809 42.9846 31.2354 41.7063 31.5934C40.4179 31.9616 39.2512 33.2094 39.5352 34.5185L40.6005 33.2094C41.4425 32.4832 42.6904 32.4832 43.7557 32.7798C44.8209 33.0764 45.805 33.6287 46.8804 33.9151C50.1877 34.7947 53.982 32.5139 54.7937 29.1592C55.1285 27.7887 55.0067 26.3363 55.1183 24.9249C55.2299 23.5135 55.6154 22.01 56.701 21.1202C57.7865 20.2202 59.7141 20.302 60.3532 21.56C59.8866 20.0361 58.6083 18.7474 57.0865 18.4201C56.4169 18.594 55.798 19.0031 55.3719 19.5554C55.4835 19.1156 55.6966 18.7269 55.9705 18.3587C54.2763 18.5735 52.7748 20.1793 52.9878 21.8873ZM54.4386 20.4145C54.3574 20.9157 54.3371 21.427 54.3879 21.9384C54.9154 20.7929 56.1633 20.0463 57.4111 20.1281C54.9357 21.0486 54.0936 23.759 53.9618 26.1727C53.8502 28.3001 53.6473 30.3865 51.8211 31.7673C50.7863 32.5446 49.4471 32.9025 48.1587 32.7389C48.1587 32.7389 51.3646 32.8105 52.5719 30.0285C53.8907 27.0011 52.9168 23.3294 54.4386 20.4145Z" fill="url(#paint6_linear_603_1985)"/>
<path d="M58.9851 25.9068C58.6097 26.2341 58.2141 26.5409 57.9605 26.9602C57.301 28.0239 57.2401 29.7626 58.559 30.2945C59.0358 30.4888 59.5431 30.5195 60.0504 30.5604C61.4504 30.6933 62.891 31.0104 63.9766 31.9002C63.6621 30.7445 62.749 29.7831 61.6229 29.4251C62.891 29.4558 63.9461 28.2796 64.1998 27.0216C64.4534 25.7636 64.0983 24.4749 63.6722 23.268C63.5708 24.2908 63.3171 25.3238 62.678 26.1216C62.0388 26.9193 60.9736 27.4307 59.9895 27.1546C60.4156 26.0704 60.6997 24.9249 60.8518 23.7692C60.3243 24.567 59.6953 25.2829 58.9851 25.9068ZM60.0199 28.5046C60.6489 28.5864 61.2881 28.3614 61.7953 27.983C62.3026 27.6046 62.6983 27.083 63.0229 26.5307C63.0229 26.6943 62.9316 26.8477 62.8403 26.9807C62.4446 27.625 62.0185 28.2592 61.4098 28.6989C60.8113 29.149 59.9996 29.374 59.2996 29.1183C58.3358 28.7501 58.8126 27.533 59.3605 26.9398C59.2996 27.175 59.2387 27.4103 59.2387 27.6455C59.2387 27.891 59.3301 28.1364 59.5025 28.2898C59.6446 28.433 59.8373 28.4842 60.0199 28.5046Z" fill="url(#paint7_linear_603_1985)"/>
<path d="M47.2407 14.4006C48.5292 14.6665 49.8176 15.045 50.8829 15.8223C51.9075 16.5689 52.3539 17.4689 52.7293 19.044C52.9322 17.1928 54.454 16.4564 53.5511 14.4824C53.2771 13.8995 52.8409 13.4188 52.3641 12.9687C52.4351 13.5006 52.4452 14.0426 52.3336 14.5643C52.0191 13.3369 51.5524 12.2119 50.5684 11.3937C49.9495 10.8721 49.3509 10.33 48.7524 9.79815C49.5437 10.9743 50.193 12.263 50.6597 13.6029C49.9901 12.4471 48.7219 11.7926 47.4842 11.3119C46.2465 10.8209 44.9276 10.422 43.9334 9.53223C43.0812 8.78561 42.5232 7.54806 42.7768 6.48438C42.2391 8.13103 42.5638 10.0641 43.2537 11.6289C44.0247 13.3983 45.4755 14.0324 47.2407 14.4006ZM48.7625 12.6926C49.9901 13.2653 50.5988 14.4927 50.6698 14.6461C50.3959 14.2267 49.9901 14.0017 49.6654 13.879C49.2089 13.7051 48.7219 13.6029 48.2451 13.5108C47.3828 13.3472 46.49 13.204 45.7595 12.7335C46.0842 12.8153 46.4291 12.8153 46.7538 12.7233C45.5972 12.6312 44.5827 11.5369 44.1363 10.5243C45.4552 11.5573 48.1741 12.4267 48.7625 12.6926Z" fill="url(#paint8_linear_603_1985)"/>
<path d="M35.5842 6.48436L36.6697 2.33191L34.5088 3.51833L32.8044 0L31.1102 3.51833L28.9492 2.33191L30.0246 6.48436H35.5842ZM35.361 4.01949C35.2088 4.53087 35.0668 5.04226 34.9146 5.55364C34.9146 5.11385 34.6103 4.67406 34.2044 4.53087C34.59 4.357 34.9755 4.19336 35.361 4.01949ZM32.8044 1.93303C34.0015 5.90138 32.8044 5.60478 32.8044 5.60478C32.8044 5.60478 31.5058 5.89116 32.8044 1.93303ZM31.3232 4.53087C30.8971 4.68429 30.6029 5.12408 30.613 5.5741C30.4609 5.05248 30.3087 4.5411 30.1565 4.01949C30.542 4.19336 30.9275 4.357 31.3232 4.53087Z" fill="url(#paint9_linear_603_1985)"/>
<path d="M27.3916 7.20029C27.8786 6.82187 28.0714 6.15707 28.0409 5.53318C28.0105 4.90929 27.7772 4.32631 27.554 3.74333C27.5742 4.9502 26.8438 5.69682 25.9409 6.49458C25.738 6.03434 25.738 6.03434 25.5351 5.58432C25.1394 6.34117 24.9263 7.20029 24.9466 8.05942L25.0177 8.31511C25.5351 7.59917 26.6815 7.74236 27.3916 7.20029Z" fill="url(#paint10_linear_603_1985)"/>
<path d="M38.1796 7.20029C38.8796 7.74236 40.026 7.59917 40.5637 8.31511L40.6347 8.05942C40.655 7.20029 40.4419 6.34117 40.0463 5.58432C39.8434 6.04456 39.8434 6.04456 39.6405 6.49458C38.7375 5.69682 38.0071 4.9502 38.0274 3.74333C37.8042 4.31608 37.5708 4.90929 37.5404 5.53318C37.4998 6.15707 37.6926 6.82187 38.1796 7.20029Z" fill="url(#paint11_linear_603_1985)"/>
<path d="M37.8242 22.235C38.0068 22.0714 38.159 21.8873 38.2909 21.6827C38.5344 21.2736 38.6663 20.7929 38.6663 20.2509C38.6663 19.719 38.5445 19.2383 38.2909 18.8394C38.1692 18.6349 38.017 18.4508 37.8344 18.2871C37.8547 18.3281 37.8749 18.369 37.8952 18.4099C38.1184 18.9213 38.2199 19.5451 38.2199 20.2509C38.2199 20.9463 38.1083 21.5702 37.8952 22.0816C37.8749 22.1328 37.8547 22.1839 37.8242 22.235Z" fill="url(#paint12_linear_603_1985)"/>
<path d="M32.8142 30.5501C38.3027 30.5501 42.7768 26.05 42.7768 20.5065C42.7768 14.9734 38.3129 10.4629 32.8142 10.4629C27.3256 10.4629 22.8516 14.9631 22.8516 20.5065C22.8516 26.05 27.3155 30.5501 32.8142 30.5501ZM34.8534 26.3568H30.7851V25.6102H30.8866C31.0793 25.6102 31.262 25.5181 31.3938 25.3647C31.5156 25.2113 31.5663 25.0067 31.5257 24.8124L30.0141 17.8576H30.7851L32.2663 24.6385C32.3373 24.9454 32.2968 25.2624 32.175 25.5488H32.804L31.1301 17.8576H31.9315L33.4432 25.1499L33.6258 24.1885H34.2751L34.1432 24.8124C34.1026 25.0067 34.1432 25.2011 34.2751 25.3647C34.3968 25.5181 34.5794 25.6102 34.7823 25.6102H34.8635V26.3568H34.8534ZM38.9622 18.4201C39.2868 18.9519 39.4492 19.5656 39.4492 20.2508C39.4492 20.9463 39.2868 21.56 38.9622 22.0918C38.6375 22.6237 38.1709 23.043 37.5926 23.3396C37.0042 23.6362 36.3244 23.7896 35.5635 23.7896H33.4939L33.3519 23.0532H35.1374C35.6244 23.0532 36.0404 22.9407 36.3853 22.7362C36.7302 22.5214 37.0042 22.2043 37.1766 21.785C37.3491 21.3657 37.4404 20.8543 37.4404 20.2611C37.4404 19.6576 37.3491 19.1463 37.1766 18.7371C36.994 18.3178 36.7302 18.0008 36.3853 17.786C36.3041 17.7348 36.223 17.6939 36.1215 17.653L36.3041 16.8041C36.6998 16.8757 37.2273 16.9882 37.5926 17.1723C38.181 17.4689 38.6375 17.8882 38.9622 18.4201ZM33.9707 14.6665H37.0549V15.4029H36.7708C36.436 15.4029 36.1317 15.6484 36.0607 15.9757L34.6099 22.6339H33.92L35.1577 16.2825C35.1983 16.0677 35.1476 15.8427 35.0055 15.6791C34.8635 15.5052 34.6606 15.4131 34.4476 15.4131H33.9809V14.6665H33.9707ZM28.5836 14.6665H32.6519V15.4029H32.3171C32.0939 15.4029 31.891 15.5052 31.7591 15.6688C31.617 15.8427 31.5663 16.0575 31.6069 16.2723V16.2927H30.775C30.7445 15.9961 30.7953 15.7097 30.9272 15.4541H30.2069C30.2576 15.5666 30.2982 15.6791 30.3286 15.8018L30.4402 16.2927H29.6692L29.5981 15.9654C29.5271 15.6279 29.2228 15.3927 28.888 15.3927H28.5938V14.6665H28.5836ZM26.5647 23.043H26.8386C27.2343 23.043 27.5691 22.7157 27.5691 22.3066V18.1746C27.5691 17.7757 27.2444 17.4382 26.8386 17.4382H26.5647V16.7121H34.6505L34.5084 17.4485H29.3648V23.043H30.704L30.8663 23.7794H26.5647V23.043V23.043Z" fill="url(#paint13_linear_603_1985)"/>
<path d="M28.3108 18.1439V22.3578C28.3108 22.6032 28.2499 22.8385 28.1484 23.0532H28.6253V17.4587H28.1484C28.2499 17.6632 28.3108 17.8985 28.3108 18.1439Z" fill="url(#paint14_linear_603_1985)"/>
<path d="M11.6016 52.4579V50.1976H11.9769V52.4579H11.6016Z" fill="url(#paint15_linear_603_1985)"/>
<path d="M14.0472 50.8829H14.4328V52.4579H14.1081L14.0777 52.2534C13.9661 52.3966 13.753 52.4886 13.5603 52.4886C13.1849 52.4886 12.9414 52.2431 12.9414 51.8136V50.8829H13.3269V51.7522C13.3269 52.0079 13.4588 52.1409 13.6719 52.1409C13.8849 52.1409 14.0574 51.9772 14.0574 51.7624V50.8829H14.0472Z" fill="url(#paint16_linear_603_1985)"/>
<path d="M15.2656 52.4579L15.8338 51.6499L15.2961 50.8829H15.7526L16.0772 51.4045L16.4019 50.8829H16.8483L16.3207 51.6602L16.8787 52.4682H16.4323L16.0772 51.9056L15.7222 52.4682H15.2656V52.4579Z" fill="url(#paint17_linear_603_1985)"/>
<path d="M18.6918 50.8829H19.0773V52.4579H18.7526L18.7222 52.2534C18.6106 52.3966 18.3976 52.4886 18.2048 52.4886C17.8294 52.4886 17.5859 52.2431 17.5859 51.8136V50.8829H17.9715V51.7522C17.9715 52.0079 18.1033 52.1409 18.3164 52.1409C18.5294 52.1409 18.7019 51.9772 18.7019 51.7624V50.8829H18.6918Z" fill="url(#paint18_linear_603_1985)"/>
<path d="M21.2089 50.9749L21.0364 51.292C20.9553 51.2408 20.8741 51.2102 20.793 51.2102C20.6205 51.2102 20.4582 51.3738 20.448 51.6397V52.4682H20.0625V50.8931H20.3871L20.4176 51.1079C20.4987 50.9545 20.6509 50.8624 20.8335 50.8624C20.9654 50.8522 21.0973 50.8931 21.2089 50.9749Z" fill="url(#paint19_linear_603_1985)"/>
<path d="M22.2066 53L22.4298 52.4579L21.8008 50.8829H22.2167L22.6225 52.0079L23.0284 50.8829H23.4545L22.6225 53H22.2066V53Z" fill="url(#paint20_linear_603_1985)"/>
<path d="M25.4688 51.6806C25.4688 51.2204 25.8238 50.8522 26.2905 50.8522C26.5239 50.8522 26.7166 50.9442 26.8586 51.067L26.6659 51.3431C26.5644 51.2511 26.4528 51.1999 26.3108 51.1999C26.0572 51.1999 25.8543 51.4045 25.8543 51.6806C25.8543 51.9568 26.0673 52.1511 26.3108 52.1511C26.463 52.1511 26.5746 52.1 26.676 52.0079L26.8688 52.2841C26.7268 52.417 26.534 52.4989 26.3007 52.4989C25.8137 52.5091 25.4688 52.1307 25.4688 51.6806Z" fill="url(#paint21_linear_603_1985)"/>
<path d="M29.2062 51.5272V52.4579H28.8207V51.5886C28.8207 51.3329 28.6888 51.1999 28.4757 51.1999C28.2627 51.1999 28.0902 51.3636 28.0902 51.5784V52.4579H27.7148V50.1976H28.0902V51.0465C28.212 50.9238 28.4047 50.842 28.5772 50.842C28.9627 50.8522 29.2062 51.0977 29.2062 51.5272Z" fill="url(#paint22_linear_603_1985)"/>
<path d="M31.3533 50.8829H31.6881V52.4579H31.3533L31.3228 52.2738C31.2112 52.4068 31.0489 52.4988 30.846 52.4988C30.4098 52.4988 30.0547 52.1306 30.0547 51.6704C30.0547 51.2102 30.4098 50.842 30.846 50.842C31.0591 50.842 31.2214 50.934 31.333 51.067L31.3533 50.8829ZM31.3228 51.6704C31.3228 51.4045 31.1199 51.2102 30.8764 51.2102C30.633 51.2102 30.4301 51.4045 30.4301 51.6704C30.4301 51.9363 30.6228 52.1306 30.8764 52.1306C31.1301 52.1306 31.3228 51.9465 31.3228 51.6704Z" fill="url(#paint23_linear_603_1985)"/>
<path d="M32.6914 52.4579V50.1976H33.0668V52.4579H32.6914Z" fill="url(#paint24_linear_603_1985)"/>
<path d="M34.3597 51.8034C34.4105 52.0284 34.5931 52.1613 34.8163 52.1613C34.9685 52.1613 35.0902 52.1 35.1917 52.0181L35.3743 52.2841C35.2322 52.417 35.0395 52.4988 34.796 52.4988C34.3293 52.4988 33.9844 52.1306 33.9844 51.6704C33.9844 51.2102 34.309 50.842 34.7554 50.842C35.2424 50.842 35.5264 51.1897 35.5264 51.6602C35.5264 51.7011 35.5264 51.742 35.5163 51.7931H34.3597V51.8034ZM34.3699 51.5068H35.1612C35.1105 51.3022 34.9786 51.1795 34.7757 51.1795C34.5728 51.1795 34.4206 51.3022 34.3699 51.5068Z" fill="url(#paint25_linear_603_1985)"/>
<path d="M36.4771 52.4579V51.2306H36.2539V50.8726H36.4771V50.4942L36.8626 50.4022V50.8726H37.2076V51.2306H36.8626V52.4579H36.4771Z" fill="url(#paint26_linear_603_1985)"/>
<path d="M37.8594 52.2636L38.042 51.9875C38.1637 52.0795 38.3666 52.1613 38.5493 52.1613C38.7014 52.1613 38.7927 52.1102 38.7927 52.0079C38.7927 51.9056 38.7014 51.8647 38.4377 51.7931C38.1536 51.7215 37.9203 51.5681 37.9203 51.3124C37.9203 51.0567 38.1434 50.842 38.5493 50.842C38.742 50.842 38.9652 50.9135 39.1377 51.0363L38.9551 51.3124C38.8536 51.2408 38.6811 51.1795 38.5391 51.1795C38.3869 51.1795 38.3159 51.2306 38.3159 51.3124C38.3159 51.3943 38.3869 51.4454 38.6406 51.5068C38.9551 51.5886 39.1884 51.7113 39.1884 51.9977C39.1884 52.2841 38.9348 52.4886 38.5695 52.4886C38.2753 52.4988 38.042 52.4068 37.8594 52.2636Z" fill="url(#paint27_linear_603_1985)"/>
<path d="M43.3048 52.4579H42.8584L42.7063 52.2636C42.5338 52.4068 42.3207 52.4989 42.0772 52.4989C41.6309 52.4989 41.2656 52.2227 41.2656 51.7625C41.2656 51.4556 41.4685 51.159 41.7729 51.0465L41.4888 50.6783V50.3408H42.8178V50.7192H41.9758L42.6961 51.6602C42.7468 51.5272 42.7773 51.3636 42.7773 51.1999H43.1425C43.1526 51.4863 43.0715 51.7625 42.9396 51.9772L43.3048 52.4579ZM42.4932 51.9772L41.9859 51.3227C41.783 51.3431 41.6613 51.5272 41.6613 51.7011C41.6613 51.9875 41.8743 52.1204 42.1178 52.1204C42.2802 52.1204 42.4019 52.0693 42.4932 51.9772Z" fill="url(#paint28_linear_603_1985)"/>
<path d="M45.9438 52.4579L45.3047 50.8829H45.7206L46.1264 52.0284L46.5323 50.8829H46.9482L46.3091 52.4579H45.9438Z" fill="url(#paint29_linear_603_1985)"/>
<path d="M47.7266 50.3817C47.7266 50.2692 47.8179 50.1465 47.9701 50.1465C48.1121 50.1465 48.2135 50.259 48.2135 50.3817C48.2135 50.4942 48.1222 50.6067 47.9701 50.6067C47.8179 50.617 47.7266 50.5044 47.7266 50.3817ZM47.7671 52.4579V50.8829H48.1527V52.4579H47.7671Z" fill="url(#paint30_linear_603_1985)"/>
<path d="M49.1602 52.4579V50.1976H49.5355V52.4579H49.1602Z" fill="url(#paint31_linear_603_1985)"/>
<path d="M50.5469 52.4579V50.1976H50.9223V52.4579H50.5469Z" fill="url(#paint32_linear_603_1985)"/>
<path d="M53.1384 50.8829H53.4732V52.4579H53.1384L53.108 52.2738C52.9964 52.4068 52.8341 52.4988 52.6312 52.4988C52.1949 52.4988 51.8398 52.1306 51.8398 51.6704C51.8398 51.2102 52.1949 50.842 52.6312 50.842C52.8442 50.842 53.0065 50.934 53.1181 51.067L53.1384 50.8829ZM53.1181 51.6704C53.1181 51.4045 52.9152 51.2102 52.6717 51.2102C52.4283 51.2102 52.2254 51.4045 52.2254 51.6704C52.2254 51.9363 52.4181 52.1306 52.6717 52.1306C52.9254 52.1306 53.1181 51.9465 53.1181 51.6704Z" fill="url(#paint33_linear_603_1985)"/>
<path d="M54.3203 52.2636L54.5029 51.9875C54.6247 52.0795 54.8276 52.1613 55.0102 52.1613C55.1624 52.1613 55.2537 52.1102 55.2537 52.0079C55.2537 51.9056 55.1624 51.8647 54.8986 51.7931C54.6145 51.7215 54.3812 51.5681 54.3812 51.3124C54.3812 51.0567 54.6044 50.842 55.0102 50.842C55.2029 50.842 55.4261 50.9135 55.5986 51.0363L55.416 51.3124C55.3145 51.2408 55.1421 51.1795 55 51.1795C54.8479 51.1795 54.7768 51.2306 54.7768 51.3124C54.7768 51.3943 54.8479 51.4454 55.1015 51.5068C55.416 51.5886 55.6493 51.7113 55.6493 51.9977C55.6493 52.2841 55.3957 52.4886 55.0305 52.4886C54.7464 52.4988 54.5029 52.4068 54.3203 52.2636Z" fill="url(#paint34_linear_603_1985)"/>
<defs>
<linearGradient id="paint0_linear_603_1985" x1="10.7292" y1="42.7695" x2="49.9679" y2="3.84716" gradientUnits="userSpaceOnUse">
<stop stop-color="#7D4837"/>
<stop offset="0.5168" stop-color="#E8A683"/>
<stop offset="1" stop-color="#7D4837"/>
</linearGradient>
<linearGradient id="paint1_linear_603_1985" x1="9.61186" y1="33.8222" x2="37.7109" y2="5.94978" gradientUnits="userSpaceOnUse">
<stop stop-color="#7D4837"/>
<stop offset="0.5168" stop-color="#E8A683"/>
<stop offset="1" stop-color="#7D4837"/>
</linearGradient>
<linearGradient id="paint2_linear_603_1985" x1="7.7931" y1="40.0954" x2="39.4871" y2="8.657" gradientUnits="userSpaceOnUse">
<stop stop-color="#7D4837"/>
<stop offset="0.5168" stop-color="#E8A683"/>
<stop offset="1" stop-color="#7D4837"/>
</linearGradient>
<linearGradient id="paint3_linear_603_1985" x1="29.7067" y1="59.9403" x2="58.3904" y2="31.4879" gradientUnits="userSpaceOnUse">
<stop stop-color="#7D4837"/>
<stop offset="0.5168" stop-color="#E8A683"/>
<stop offset="1" stop-color="#7D4837"/>
</linearGradient>
<linearGradient id="paint4_linear_603_1985" x1="2.01938" y1="29.4334" x2="44.7023" y2="-12.9052" gradientUnits="userSpaceOnUse">
<stop stop-color="#7D4837"/>
<stop offset="0.5168" stop-color="#E8A683"/>
<stop offset="1" stop-color="#7D4837"/>
</linearGradient>
<linearGradient id="paint5_linear_603_1985" x1="1.68172" y1="28.8247" x2="48.4417" y2="-17.5582" gradientUnits="userSpaceOnUse">
<stop stop-color="#7D4837"/>
<stop offset="0.5168" stop-color="#E8A683"/>
<stop offset="1" stop-color="#7D4837"/>
</linearGradient>
<linearGradient id="paint6_linear_603_1985" x1="16.3857" y1="60.6932" x2="56.843" y2="20.5621" gradientUnits="userSpaceOnUse">
<stop stop-color="#7D4837"/>
<stop offset="0.5168" stop-color="#E8A683"/>
<stop offset="1" stop-color="#7D4837"/>
</linearGradient>
<linearGradient id="paint7_linear_603_1985" x1="16.4394" y1="74.1843" x2="61.6291" y2="29.3589" gradientUnits="userSpaceOnUse">
<stop stop-color="#7D4837"/>
<stop offset="0.5168" stop-color="#E8A683"/>
<stop offset="1" stop-color="#7D4837"/>
</linearGradient>
<linearGradient id="paint8_linear_603_1985" x1="26.2779" y1="34.4197" x2="51.1497" y2="9.7484" gradientUnits="userSpaceOnUse">
<stop stop-color="#7D4837"/>
<stop offset="0.5168" stop-color="#E8A683"/>
<stop offset="1" stop-color="#7D4837"/>
</linearGradient>
<linearGradient id="paint9_linear_603_1985" x1="6.88953" y1="29.9959" x2="46.4795" y2="-9.27482" gradientUnits="userSpaceOnUse">
<stop stop-color="#7D4837"/>
<stop offset="0.5168" stop-color="#E8A683"/>
<stop offset="1" stop-color="#7D4837"/>
</linearGradient>
<linearGradient id="paint10_linear_603_1985" x1="-0.642248" y1="33.7211" x2="51.1577" y2="-17.6612" gradientUnits="userSpaceOnUse">
<stop stop-color="#7D4837"/>
<stop offset="0.5168" stop-color="#E8A683"/>
<stop offset="1" stop-color="#7D4837"/>
</linearGradient>
<linearGradient id="paint11_linear_603_1985" x1="11.7631" y1="33.7847" x2="48.4863" y2="-2.64238" gradientUnits="userSpaceOnUse">
<stop stop-color="#7D4837"/>
<stop offset="0.5168" stop-color="#E8A683"/>
<stop offset="1" stop-color="#7D4837"/>
</linearGradient>
<linearGradient id="paint12_linear_603_1985" x1="-9.87969" y1="68.3648" x2="63.085" y2="-4.01144" gradientUnits="userSpaceOnUse">
<stop stop-color="#7D4837"/>
<stop offset="0.5168" stop-color="#E8A683"/>
<stop offset="1" stop-color="#7D4837"/>
</linearGradient>
<linearGradient id="paint13_linear_603_1985" x1="10.7278" y1="42.7697" x2="49.9669" y2="3.84706" gradientUnits="userSpaceOnUse">
<stop stop-color="#7D4837"/>
<stop offset="0.5168" stop-color="#E8A683"/>
<stop offset="1" stop-color="#7D4837"/>
</linearGradient>
<linearGradient id="paint14_linear_603_1985" x1="-11.4452" y1="60.41" x2="70.2171" y2="-20.5929" gradientUnits="userSpaceOnUse">
<stop stop-color="#7D4837"/>
<stop offset="0.5168" stop-color="#E8A683"/>
<stop offset="1" stop-color="#7D4837"/>
</linearGradient>
<linearGradient id="paint15_linear_603_1985" x1="8.76647" y1="54.3775" x2="80.9608" y2="-17.235" gradientUnits="userSpaceOnUse">
<stop stop-color="#7D4837"/>
<stop offset="0.5168" stop-color="#E8A683"/>
<stop offset="1" stop-color="#7D4837"/>
</linearGradient>
<linearGradient id="paint16_linear_603_1985" x1="10.5058" y1="54.8722" x2="54.4321" y2="11.3002" gradientUnits="userSpaceOnUse">
<stop stop-color="#7D4837"/>
<stop offset="0.5168" stop-color="#E8A683"/>
<stop offset="1" stop-color="#7D4837"/>
</linearGradient>
<linearGradient id="paint17_linear_603_1985" x1="11.0083" y1="56.7836" x2="55.5087" y2="12.6421" gradientUnits="userSpaceOnUse">
<stop stop-color="#7D4837"/>
<stop offset="0.5168" stop-color="#E8A683"/>
<stop offset="1" stop-color="#7D4837"/>
</linearGradient>
<linearGradient id="paint18_linear_603_1985" x1="11.6288" y1="58.4199" x2="55.5551" y2="14.8478" gradientUnits="userSpaceOnUse">
<stop stop-color="#7D4837"/>
<stop offset="0.5168" stop-color="#E8A683"/>
<stop offset="1" stop-color="#7D4837"/>
</linearGradient>
<linearGradient id="paint19_linear_603_1985" x1="11.1841" y1="60.833" x2="59.1977" y2="13.2064" gradientUnits="userSpaceOnUse">
<stop stop-color="#7D4837"/>
<stop offset="0.5168" stop-color="#E8A683"/>
<stop offset="1" stop-color="#7D4837"/>
</linearGradient>
<linearGradient id="paint20_linear_603_1985" x1="10.6466" y1="63.5867" x2="62.4529" y2="12.1983" gradientUnits="userSpaceOnUse">
<stop stop-color="#7D4837"/>
<stop offset="0.5168" stop-color="#E8A683"/>
<stop offset="1" stop-color="#7D4837"/>
</linearGradient>
<linearGradient id="paint21_linear_603_1985" x1="14.0801" y1="63.9877" x2="56.2867" y2="22.1217" gradientUnits="userSpaceOnUse">
<stop stop-color="#7D4837"/>
<stop offset="0.5168" stop-color="#E8A683"/>
<stop offset="1" stop-color="#7D4837"/>
</linearGradient>
<linearGradient id="paint22_linear_603_1985" x1="13.874" y1="66.0351" x2="57.8081" y2="22.4553" gradientUnits="userSpaceOnUse">
<stop stop-color="#7D4837"/>
<stop offset="0.5168" stop-color="#E8A683"/>
<stop offset="1" stop-color="#7D4837"/>
</linearGradient>
<linearGradient id="paint23_linear_603_1985" x1="15.4709" y1="67.4168" x2="57.5629" y2="25.6643" gradientUnits="userSpaceOnUse">
<stop stop-color="#7D4837"/>
<stop offset="0.5168" stop-color="#E8A683"/>
<stop offset="1" stop-color="#7D4837"/>
</linearGradient>
<linearGradient id="paint24_linear_603_1985" x1="3.58737" y1="80.8669" x2="75.7797" y2="9.25643" gradientUnits="userSpaceOnUse">
<stop stop-color="#7D4837"/>
<stop offset="0.5168" stop-color="#E8A683"/>
<stop offset="1" stop-color="#7D4837"/>
</linearGradient>
<linearGradient id="paint25_linear_603_1985" x1="17.0627" y1="69.5558" x2="57.6806" y2="29.2657" gradientUnits="userSpaceOnUse">
<stop stop-color="#7D4837"/>
<stop offset="0.5168" stop-color="#E8A683"/>
<stop offset="1" stop-color="#7D4837"/>
</linearGradient>
<linearGradient id="paint26_linear_603_1985" x1="9.09649" y1="79.2735" x2="67.5202" y2="21.3207" gradientUnits="userSpaceOnUse">
<stop stop-color="#7D4837"/>
<stop offset="0.5168" stop-color="#E8A683"/>
<stop offset="1" stop-color="#7D4837"/>
</linearGradient>
<linearGradient id="paint27_linear_603_1985" x1="16.5491" y1="73.8545" x2="60.4354" y2="30.3219" gradientUnits="userSpaceOnUse">
<stop stop-color="#7D4837"/>
<stop offset="0.5168" stop-color="#E8A683"/>
<stop offset="1" stop-color="#7D4837"/>
</linearGradient>
<linearGradient id="paint28_linear_603_1985" x1="16.6555" y1="77.3618" x2="62.0362" y2="32.3469" gradientUnits="userSpaceOnUse">
<stop stop-color="#7D4837"/>
<stop offset="0.5168" stop-color="#E8A683"/>
<stop offset="1" stop-color="#7D4837"/>
</linearGradient>
<linearGradient id="paint29_linear_603_1985" x1="17.22" y1="80.4918" x2="62.632" y2="35.4462" gradientUnits="userSpaceOnUse">
<stop stop-color="#7D4837"/>
<stop offset="0.5168" stop-color="#E8A683"/>
<stop offset="1" stop-color="#7D4837"/>
</linearGradient>
<linearGradient id="paint30_linear_603_1985" x1="0.864881" y1="98.8328" x2="71.5861" y2="28.6829" gradientUnits="userSpaceOnUse">
<stop stop-color="#7D4837"/>
<stop offset="0.5168" stop-color="#E8A683"/>
<stop offset="1" stop-color="#7D4837"/>
</linearGradient>
<linearGradient id="paint31_linear_603_1985" x1="-0.449616" y1="101.543" x2="71.7427" y2="29.9334" gradientUnits="userSpaceOnUse">
<stop stop-color="#7D4837"/>
<stop offset="0.5168" stop-color="#E8A683"/>
<stop offset="1" stop-color="#7D4837"/>
</linearGradient>
<linearGradient id="paint32_linear_603_1985" x1="-0.795333" y1="103.287" x2="71.397" y2="31.6751" gradientUnits="userSpaceOnUse">
<stop stop-color="#7D4837"/>
<stop offset="0.5168" stop-color="#E8A683"/>
<stop offset="1" stop-color="#7D4837"/>
</linearGradient>
<linearGradient id="paint33_linear_603_1985" x1="21.4405" y1="83.3636" x2="63.5328" y2="41.6109" gradientUnits="userSpaceOnUse">
<stop stop-color="#7D4837"/>
<stop offset="0.5168" stop-color="#E8A683"/>
<stop offset="1" stop-color="#7D4837"/>
</linearGradient>
<linearGradient id="paint34_linear_603_1985" x1="20.5455" y1="86.4246" x2="64.4318" y2="42.8923" gradientUnits="userSpaceOnUse">
<stop stop-color="#7D4837"/>
<stop offset="0.5168" stop-color="#E8A683"/>
<stop offset="1" stop-color="#7D4837"/>
</linearGradient>
</defs>
</svg>
