<svg width="12" height="16" viewBox="0 0 12 16" fill="none" xmlns="http://www.w3.org/2000/svg">
<mask id="path-1-outside-1_603_512" maskUnits="userSpaceOnUse" x="-2.93851" y="-1.18307" width="18.3797" height="18.3899" fill="black">
<rect fill="white" x="-2.93851" y="-1.18307" width="18.3797" height="18.3899"/>
<path fill-rule="evenodd" clip-rule="evenodd" d="M6.71755 13.5762L10.7861 9.84166L11.4619 10.5787L6.60736 15.0348L6.26944 15.3449L5.93153 15.0348L1.077 10.5787L1.75283 9.84166L5.71782 13.4812L5.71743 0.697648L6.71715 0.697617L6.71755 13.5762Z"/>
</mask>
<path fill-rule="evenodd" clip-rule="evenodd" d="M6.71755 13.5762L10.7861 9.84166L11.4619 10.5787L6.60736 15.0348L6.26944 15.3449L5.93153 15.0348L1.077 10.5787L1.75283 9.84166L5.71782 13.4812L5.71743 0.697648L6.71715 0.697617L6.71755 13.5762Z" fill="white"/>
<path d="M6.71755 13.5762L6.5176 13.5762L6.51762 14.0312L6.85271 13.7236L6.71755 13.5762ZM10.7861 9.84166L10.9334 9.70642L10.7982 9.559L10.6509 9.69424L10.7861 9.84166ZM11.4619 10.5787L11.5971 10.7262L11.7444 10.5909L11.6092 10.4435L11.4619 10.5787ZM6.60736 15.0348L6.47219 14.8874L6.47219 14.8874L6.60736 15.0348ZM6.26944 15.3449L6.13428 15.4924L6.26944 15.6164L6.40461 15.4924L6.26944 15.3449ZM5.93153 15.0348L5.79636 15.1822L5.79636 15.1822L5.93153 15.0348ZM1.077 10.5787L0.929668 10.4435L0.794501 10.5909L0.941837 10.7262L1.077 10.5787ZM1.75283 9.84166L1.888 9.69424L1.74066 9.559L1.6055 9.70642L1.75283 9.84166ZM5.71782 13.4812L5.58266 13.6286L5.91778 13.9362L5.91777 13.4812L5.71782 13.4812ZM5.71743 0.697648L5.71742 0.497593L5.51748 0.497599L5.51748 0.697654L5.71743 0.697648ZM6.71715 0.697617L6.91709 0.697611L6.91709 0.497556L6.71714 0.497561L6.71715 0.697617ZM6.85271 13.7236L10.9212 9.98908L10.6509 9.69424L6.58238 13.4288L6.85271 13.7236ZM10.6387 9.9769L11.3145 10.714L11.6092 10.4435L10.9334 9.70642L10.6387 9.9769ZM11.3267 10.4313L6.47219 14.8874L6.74253 15.1822L11.5971 10.7262L11.3267 10.4313ZM6.47219 14.8874L6.13428 15.1975L6.40461 15.4924L6.74253 15.1822L6.47219 14.8874ZM6.40461 15.1975L6.06669 14.8874L5.79636 15.1822L6.13428 15.4924L6.40461 15.1975ZM6.06669 14.8874L1.21217 10.4313L0.941837 10.7262L5.79636 15.1822L6.06669 14.8874ZM1.22434 10.714L1.90017 9.9769L1.6055 9.70642L0.929668 10.4435L1.22434 10.714ZM1.61767 9.98908L5.58266 13.6286L5.85299 13.3338L1.888 9.69424L1.61767 9.98908ZM5.91777 13.4812L5.91737 0.697642L5.51748 0.697654L5.51788 13.4812L5.91777 13.4812ZM5.71743 0.897704L6.71716 0.897673L6.71714 0.497561L5.71742 0.497593L5.71743 0.897704ZM6.5172 0.697623L6.5176 13.5762L6.91749 13.5762L6.91709 0.697611L6.5172 0.697623Z" fill="white" mask="url(#path-1-outside-1_603_512)"/>
</svg>
