<svg width="25" height="25" viewBox="0 0 25 25" fill="none" xmlns="http://www.w3.org/2000/svg">
<path d="M4.99229 4.63319C3.96532 5.66344 3.15554 6.88931 2.61092 8.23819C2.06631 9.58707 1.79793 11.0315 1.82169 12.486C1.84544 13.9405 2.16085 15.3754 2.74923 16.7058C3.3376 18.0362 4.18698 19.2349 5.24705 20.2311C6.30712 21.2273 7.55633 22.0005 8.92068 22.5052C10.285 23.0098 11.7368 23.2355 13.1899 23.1688C14.6431 23.1022 16.0681 22.7447 17.3805 22.1173C18.693 21.49 19.8662 20.6056 20.8307 19.5167C18.7116 20.0378 16.4939 20.0034 14.3921 19.4169C12.2902 18.8303 10.3752 17.7113 8.83222 16.1682C7.28926 14.625 6.17053 12.7099 5.58419 10.608C4.99785 8.506 4.96374 6.28832 5.48514 4.16933C5.31617 4.31889 5.1518 4.47358 4.99229 4.63319ZM10.1183 14.8835C12.0743 16.8395 14.7024 17.9764 17.4673 18.0626C20.2322 18.1488 22.926 17.1778 25 15.3473C24.4627 17.5307 23.3546 19.532 21.7893 21.1461C20.224 22.7603 18.2577 23.9294 16.0919 24.5335C13.9261 25.1377 11.6386 25.1553 9.46376 24.5845C7.28892 24.0136 5.30491 22.8749 3.71498 21.285C2.12505 19.6951 0.986354 17.7111 0.415533 15.5362C-0.155289 13.3614 -0.137712 11.0739 0.466463 8.90811C1.07064 6.7423 2.23969 4.77603 3.85387 3.21072C5.46804 1.64541 7.46931 0.537333 9.65266 0C7.82191 2.07435 6.85089 4.76864 6.93741 7.53398C7.02393 10.2993 8.16149 12.9276 10.1183 14.8835Z" fill="white"/>
</svg>
