<svg width="20" height="20" viewBox="0 0 20 20" fill="none" xmlns="http://www.w3.org/2000/svg">
<path d="M7.25066 4.99687C7.31387 4.99666 7.37607 4.98099 7.43184 4.95122C7.48776 4.92137 7.5355 4.87826 7.57088 4.82567C7.60627 4.77307 7.6282 4.7126 7.63478 4.64956C7.64135 4.58651 7.63236 4.52282 7.60859 4.46406L7.60859 4.46406L7.6083 4.46336L7.00674 3.01805L7.00675 3.01805L7.00625 3.0169C6.96578 2.92404 6.89119 2.85026 6.7979 2.81079C6.7046 2.77132 6.59971 2.76917 6.50488 2.80478L6.50482 2.80463L6.50031 2.80668C6.40715 2.84887 6.33351 2.92489 6.2943 3.01934C6.2551 3.1138 6.25325 3.21962 6.28915 3.31538L6.2891 3.3154L6.29019 3.31801L6.89135 4.75456C6.91933 4.82666 6.96866 4.88851 7.03276 4.93182C7.09704 4.97526 7.17309 4.99796 7.25066 4.99687ZM7.25066 4.99687C7.25082 4.99687 7.25099 4.99687 7.25115 4.99686L7.25 4.92187L7.25015 4.99687C7.25032 4.99687 7.25049 4.99687 7.25066 4.99687ZM3.35861 8.88749C3.43622 8.8886 3.5123 8.86591 3.57662 8.82245C3.64087 8.77904 3.69028 8.71699 3.71822 8.64467C3.75633 8.54973 3.75535 8.44357 3.71549 8.34933C3.67558 8.25502 3.59997 8.18034 3.50518 8.14161C3.50508 8.14157 3.50497 8.14152 3.50487 8.14148L2.06802 7.54018L2.06804 7.54014L2.06539 7.53914C1.96962 7.50325 1.8638 7.50509 1.76935 7.5443C1.67489 7.58351 1.59887 7.65715 1.55668 7.7503L1.55662 7.75028L1.55544 7.7532C1.5171 7.84828 1.51801 7.95468 1.55795 8.0491C1.59785 8.14341 1.67347 8.21809 1.76826 8.25682C1.76836 8.25687 1.76847 8.25691 1.76857 8.25695L3.21337 8.8583L3.21369 8.85843C3.25969 8.87733 3.30889 8.8872 3.35861 8.88749ZM3.35861 8.88749C3.35848 8.88749 3.35835 8.88749 3.35823 8.88749L3.35938 8.8125L3.359 8.8875C3.35887 8.8875 3.35874 8.88749 3.35861 8.88749ZM16.7866 8.8583L16.7863 8.85843C16.7402 8.87738 16.6909 8.88725 16.641 8.8875M16.7866 8.8583L16.641 8.8875M16.7866 8.8583L18.2314 8.25695C18.2315 8.25691 18.2316 8.25687 18.2317 8.25682C18.3265 8.21809 18.4021 8.14341 18.442 8.0491C18.482 7.95468 18.4829 7.84828 18.4446 7.7532L18.4446 7.75317L18.4433 7.7503C18.4011 7.65715 18.3251 7.58351 18.2307 7.5443C18.1362 7.50509 18.0304 7.50325 17.9346 7.53914L17.9346 7.53909L17.932 7.54018L16.4951 8.14148C16.495 8.14152 16.4949 8.14157 16.4948 8.14161C16.4 8.18034 16.3244 8.25502 16.2845 8.34933C16.2446 8.44356 16.2437 8.54973 16.2818 8.64467M16.7866 8.8583L16.2818 8.64467M16.641 8.8875C16.5635 8.88852 16.4876 8.86583 16.4234 8.82245C16.3591 8.77904 16.3097 8.71699 16.2818 8.64467M16.641 8.8875L16.2818 8.64467M12.7492 4.99687C12.8268 4.99798 12.9029 4.97528 12.9672 4.93182C13.0313 4.88851 13.0807 4.82666 13.1087 4.75455L13.7098 3.31801L13.7099 3.31803L13.7109 3.31538C13.7467 3.21962 13.7449 3.1138 13.7057 3.01934C13.6665 2.92489 13.5929 2.84887 13.4997 2.80668L13.4998 2.80653L13.4951 2.80478C13.4003 2.76917 13.2954 2.77132 13.2021 2.81079C13.1088 2.85026 13.0342 2.92404 12.9937 3.0169L12.9933 3.01805L12.3917 4.46336L12.3914 4.46414C12.353 4.55922 12.3539 4.66562 12.3939 4.76003C12.4338 4.85442 12.5095 4.92914 12.6044 4.96785M12.7492 4.99687C12.6995 4.99657 12.6504 4.98672 12.6044 4.96785M12.7492 4.99687C12.7491 4.99687 12.749 4.99686 12.7489 4.99686L12.75 4.92187L12.7496 4.99687C12.7495 4.99687 12.7494 4.99687 12.7492 4.99687ZM12.6044 4.96785C12.6044 4.96786 12.6045 4.96787 12.6045 4.96789L12.6328 4.89843L12.6043 4.96781C12.6043 4.96782 12.6044 4.96783 12.6044 4.96785ZM4.925 11.25L4.925 11.2503C4.92604 11.5392 4.95008 11.8275 4.99688 12.1125H1.25C1.14723 12.1125 1.04867 12.1533 0.975996 12.226C0.903326 12.2987 0.8625 12.3972 0.8625 12.5C0.8625 12.6028 0.903326 12.7013 0.975996 12.774C1.04867 12.8467 1.14723 12.8875 1.25 12.8875H18.75C18.8528 12.8875 18.9513 12.8467 19.024 12.774C19.0967 12.7013 19.1375 12.6028 19.1375 12.5C19.1375 12.3972 19.0967 12.2987 19.024 12.226C18.9513 12.1533 18.8528 12.1125 18.75 12.1125H15.0031C15.0499 11.8275 15.074 11.5392 15.075 11.2503V11.25C15.075 9.90402 14.5403 8.61318 13.5886 7.66143C12.6368 6.70968 11.346 6.175 10 6.175C8.65403 6.175 7.36318 6.70968 6.41143 7.66143C5.45969 8.61318 4.925 9.90402 4.925 11.25ZM14.3 11.25L14.3 11.2504C14.3017 11.5401 14.2725 11.8291 14.213 12.1125H5.787C5.7275 11.8291 5.69833 11.5401 5.7 11.2504V11.25C5.7 10.1096 6.15303 9.01584 6.95944 8.20944C7.76585 7.40303 8.85957 6.95 10 6.95C11.1404 6.95 12.2342 7.40303 13.0406 8.20944C13.847 9.01584 14.3 10.1096 14.3 11.25ZM3.75 15.2375C3.64723 15.2375 3.54867 15.2783 3.476 15.351C3.40333 15.4237 3.3625 15.5222 3.3625 15.625C3.3625 15.7278 3.40333 15.8263 3.476 15.899C3.54867 15.9717 3.64723 16.0125 3.75 16.0125H16.25C16.3528 16.0125 16.4513 15.9717 16.524 15.899C16.5967 15.8263 16.6375 15.7278 16.6375 15.625C16.6375 15.5222 16.5967 15.4237 16.524 15.351C16.4513 15.2783 16.3528 15.2375 16.25 15.2375H3.75Z" fill="white" stroke="white" stroke-width="0.15"/>
</svg>
